<svg xmlns="http://www.w3.org/2000/svg" xmlns:xlink="http://www.w3.org/1999/xlink" width="500" zoomAndPan="magnify" viewBox="0 0 375 374.999991" height="500" preserveAspectRatio="xMidYMid meet" version="1.0"><defs><clipPath id="82dee5e34a"><path d="M 0 21 L 329.9375 21 L 329.9375 375 L 0 375 Z M 0 21 " clip-rule="nonzero"/></clipPath></defs><g clip-path="url(#82dee5e34a)"><path fill="#c0603e" d="M 320.460938 244.675781 C 318.007812 244.308594 311.742188 244.847656 312.023438 247.40625 C 312.300781 249.945312 312.925781 252.765625 312.195312 253.945312 C 311.464844 255.128906 308.558594 259.933594 308.558594 259.933594 C 308.558594 259.933594 305.742188 257.757812 302.835938 257.113281 C 299.929688 256.46875 291.945312 255.84375 290.484375 255.027344 C 289.039062 254.207031 276.234375 244.902344 273.644531 242.726562 C 271.050781 240.550781 263.03125 235.105469 259.621094 231.558594 C 256.210938 228.023438 254.316406 228.964844 254.316406 224.335938 C 254.316406 219.710938 252.402344 217.535156 249.007812 214.265625 C 245.601562 210.992188 243.703125 207.601562 243.023438 201.460938 C 242.347656 195.335938 237.578125 174.492188 235.664062 170.421875 C 233.753906 166.351562 231.175781 155.042969 230.898438 150.539062 C 230.621094 146.050781 232.535156 143.996094 232.117188 139.109375 C 231.714844 134.203125 231.300781 133.246094 234.152344 131.625 C 237.003906 129.992188 240.414062 126.179688 240.414062 124.683594 C 240.414062 123.1875 231.019531 123.050781 229.386719 121.832031 C 227.75 120.613281 226.933594 118.300781 225.4375 116.527344 C 223.941406 114.75 222.984375 112.039062 222.984375 112.039062 L 224.617188 110.402344 C 224.617188 110.402344 231.28125 113.535156 235.648438 112.4375 C 240.015625 111.339844 241.773438 99.234375 243.007812 96.242188 C 244.226562 93.25 248.730469 86.566406 249.132812 83.316406 C 249.53125 80.042969 249.808594 77.050781 249.808594 77.050781 C 249.808594 77.050781 263.152344 70.789062 267.382812 65.621094 C 271.609375 60.453125 274.183594 42.066406 272.425781 39.890625 C 270.652344 37.714844 252.28125 39.210938 250.644531 39.074219 C 249.007812 38.933594 237.039062 21.46875 229.019531 21.066406 C 220.984375 20.667969 207.917969 22.023438 200.019531 25.695312 C 192.121094 29.367188 185.457031 38.222656 184.222656 43.667969 C 183.003906 49.113281 185.71875 63.132812 184.761719 65.863281 C 183.804688 68.597656 168.824219 75.660156 167.328125 76.753906 C 165.832031 77.851562 166.929688 80.289062 166.929688 80.289062 C 166.929688 80.289062 147.460938 74.84375 141.476562 75.660156 C 135.492188 76.476562 126.777344 77.972656 123.367188 82.199219 C 119.957031 86.429688 108.109375 100.035156 105.253906 105.21875 C 102.402344 110.382812 99.132812 116.386719 96.957031 116.925781 C 94.78125 117.464844 78.566406 119.101562 76.949219 120.457031 C 75.316406 121.816406 66.339844 140.464844 61.972656 156.539062 C 57.621094 172.597656 54.351562 206.921875 55.707031 212.90625 C 57.066406 218.890625 58.441406 231.695312 57.882812 238.5 C 57.34375 245.300781 63.867188 255.113281 64.425781 258.921875 C 64.980469 262.734375 71.367188 274.980469 70.410156 276.617188 C 69.453125 278.25 64.824219 281.523438 67.417969 285.054688 C 70.007812 288.585938 79.402344 292.535156 79.402344 292.535156 C 79.402344 292.535156 79.125 312.140625 80.5 318.402344 C 81.875 324.667969 86.902344 326.164062 86.902344 326.164062 L 91.128906 323.03125 C 91.128906 323.03125 85.542969 319.5 86.082031 311.722656 C 86.625 303.964844 86.761719 293.753906 86.761719 293.753906 L 92.207031 293.890625 C 92.207031 293.890625 96.433594 301.511719 103.636719 304.644531 L 107.046875 301.234375 C 107.046875 301.234375 101.878906 297.960938 99.828125 293.472656 C 99.828125 293.472656 108.125 295.925781 112.753906 295.789062 C 117.382812 295.648438 122.828125 293.472656 122.828125 293.472656 C 122.828125 293.472656 124.324219 309.53125 125.140625 311.304688 C 125.957031 313.082031 128.8125 313.082031 128.8125 313.898438 C 128.8125 314.714844 133.4375 338.132812 139.023438 346.171875 C 144.609375 354.207031 149.636719 356.660156 149.636719 356.660156 C 149.636719 356.660156 149.0625 362.664062 148.976562 369.101562 L -14.578125 510.851562 C -17.097656 508.363281 -19.394531 506.867188 -19.988281 507.425781 C -20.578125 507.964844 -19.328125 510.347656 -17.097656 513.046875 L -43.125 535.625 C -43.125 535.625 -43.472656 537.105469 -42.8125 537.921875 C -42.152344 538.722656 -41.210938 538.515625 -41.210938 538.515625 L -14.542969 515.878906 C -12.019531 518.386719 -9.722656 519.863281 -9.113281 519.308594 C -8.523438 518.769531 -9.757812 516.402344 -11.984375 513.707031 L 149.203125 376.875 C 149.425781 379.519531 149.828125 381.78125 150.523438 383.175781 C 153.375 388.898438 155.011719 397.476562 154.613281 400.746094 C 154.210938 404.015625 153.394531 407.476562 153.394531 409.324219 C 153.394531 411.167969 154.003906 415.046875 150.730469 417.5 C 147.460938 419.953125 143.183594 427.503906 137.859375 430.375 C 132.550781 433.226562 111.710938 443.4375 99.253906 451.007812 C 86.796875 458.558594 67.398438 473.882812 62.894531 478.980469 C 58.40625 484.078125 51.464844 489.800781 50.226562 489.800781 C 48.992188 489.800781 39.476562 489.261719 34.917969 490.410156 C 30.359375 491.558594 25.871094 493.683594 25.523438 493.683594 C 25.175781 493.683594 21.035156 492.863281 17.625 494.289062 C 14.214844 495.71875 19.660156 521.726562 21.226562 524.511719 C 22.792969 527.292969 26.0625 529.414062 26.273438 533.296875 C 26.480469 537.175781 29.054688 556.433594 32.257812 564.609375 C 35.457031 572.789062 46.140625 586.0625 49.339844 587.277344 C 52.542969 588.496094 56.28125 584.824219 56.28125 584.824219 C 56.28125 584.824219 59.066406 582.859375 58.386719 578.632812 C 57.707031 574.40625 55.535156 564.472656 56.472656 560.523438 C 57.414062 556.574219 62.875 551.40625 63.277344 545.820312 C 63.675781 540.238281 64.492188 532.617188 65.589844 531.660156 C 66.6875 530.703125 77.296875 526.214844 78.117188 524.039062 C 78.933594 521.867188 85.058594 522.820312 85.734375 519.550781 C 86.414062 516.28125 94.851562 509.878906 99.898438 505.808594 C 104.941406 501.71875 123.851562 486.878906 131.074219 482.390625 C 138.292969 477.902344 146.589844 476.40625 149.183594 475.308594 C 151.777344 474.214844 154.351562 469.726562 156.265625 468.769531 C 158.179688 467.8125 166.476562 464.417969 170.425781 462.785156 C 174.375 461.148438 181.316406 458.972656 184.046875 457.058594 C 186.78125 455.148438 190.449219 449.300781 190.449219 449.300781 C 190.449219 449.300781 191.808594 475.847656 190.851562 481.015625 C 189.894531 486.183594 189.074219 509.738281 189.074219 519.414062 C 189.074219 529.085938 189.355469 548.273438 190.171875 549.769531 C 190.988281 551.265625 195.757812 552.363281 195.078125 554 C 194.398438 555.632812 190.589844 559.375 191.128906 562.367188 C 191.667969 565.359375 195.078125 572.300781 194.867188 577.277344 C 194.660156 582.25 193.914062 586.828125 196.503906 587.539062 C 199.097656 588.234375 207.863281 589.191406 217.957031 589.054688 C 228.027344 588.914062 227.558594 585.714844 229.523438 585.105469 C 231.492188 584.496094 240.136719 584.636719 245.183594 586.269531 C 250.226562 587.90625 261.117188 589.125 269.765625 588.515625 C 278.410156 587.90625 287.457031 586.410156 289.648438 584.914062 C 291.824219 583.417969 288.433594 579.050781 288.433594 579.050781 C 288.433594 579.050781 285.980469 571.898438 279.644531 570.941406 C 273.3125 569.988281 266.773438 569.167969 262.421875 566.785156 C 258.074219 564.402344 254.941406 559.914062 251.460938 557.789062 C 249.652344 556.695312 246.90625 554.746094 244.554688 552.710938 L 249.410156 533.242188 C 252.925781 533.800781 255.65625 533.679688 255.8125 532.878906 C 255.984375 532.09375 253.585938 530.894531 250.210938 529.988281 L 309.066406 294.292969 C 311.761719 294.675781 314.929688 294.136719 315.449219 293.613281 C 316.214844 292.847656 316.808594 290.984375 316.808594 290.984375 C 316.808594 290.984375 320.441406 289.996094 321.625 288.8125 C 322.808594 287.628906 322.078125 285.367188 322.078125 285.367188 C 322.078125 285.367188 324.894531 284.183594 325.070312 281.921875 C 325.246094 279.660156 323.800781 277.921875 323.800781 277.921875 C 323.800781 277.921875 326.707031 275.378906 326.53125 272.925781 C 326.359375 270.472656 322.636719 266.210938 321.171875 265.21875 C 319.730469 264.230469 321 258.140625 322.269531 256.871094 C 323.539062 255.601562 329.351562 253.964844 329.523438 251.703125 C 329.699219 249.441406 322.894531 245.074219 320.441406 244.710938 Z M 246.503906 529.191406 C 243.007812 528.632812 240.277344 528.773438 240.101562 529.554688 C 239.929688 530.339844 242.328125 531.539062 245.722656 532.441406 L 241.582031 549.804688 C 240.832031 548.953125 240.277344 548.152344 240.050781 547.472656 C 239.058594 544.570312 239.597656 543.019531 237.960938 541.75 C 236.328125 540.480469 234.152344 539.019531 234.152344 539.019531 C 234.152344 539.019531 237.421875 530.496094 237.058594 527.851562 C 236.691406 525.222656 233.527344 513.601562 233.246094 510.417969 C 232.96875 507.234375 238.761719 488.113281 237.128906 480.964844 C 235.492188 473.8125 234.066406 466.472656 234.675781 462.175781 C 235.28125 457.878906 245.09375 446.449219 245.09375 436.234375 C 245.09375 426.023438 239.179688 409.894531 238.152344 403.5625 C 237.128906 397.230469 236.519531 380.6875 234.675781 373.136719 C 232.828125 365.585938 228.757812 359.863281 227.125 351.683594 C 225.488281 343.507812 221.609375 339.230469 222.027344 335.75 C 222.425781 332.269531 223.453125 328.199219 224.6875 325.136719 C 225.90625 322.074219 225.453125 316.4375 225.453125 316.4375 C 225.453125 316.4375 228.273438 316.074219 229.542969 315.621094 C 230.8125 315.167969 231.457031 313.082031 231.457031 313.082031 C 231.457031 313.082031 235.089844 314.890625 236.621094 314.351562 C 238.171875 313.8125 239.441406 310.539062 239.441406 310.539062 C 239.441406 310.539062 243.53125 310.628906 245.058594 309.097656 C 246.609375 307.546875 246.78125 304.191406 246.78125 304.191406 C 246.78125 304.191406 252.054688 302.746094 252.871094 301.199219 C 253.6875 299.648438 251.011719 293.527344 251.777344 292.761719 C 252.542969 291.996094 258.683594 291.578125 261.9375 291.125 C 265.207031 290.671875 258.855469 282.601562 255.757812 280.042969 C 252.679688 277.503906 250.488281 276.597656 249.21875 277.503906 C 247.949219 278.40625 247.582031 280.128906 246.398438 280.773438 C 245.21875 281.417969 243.667969 281.957031 243.667969 281.957031 C 243.667969 281.957031 240.589844 277.695312 237.128906 276.144531 C 233.683594 274.597656 226.601562 275.328125 226.601562 275.328125 C 226.601562 275.328125 222.792969 271.066406 222.148438 269.34375 C 221.503906 267.621094 224.234375 254.730469 224.234375 254.730469 C 224.234375 254.730469 241.109375 266.074219 247.84375 272.25 C 254.558594 278.425781 269.261719 282.601562 273.539062 283.59375 C 277.820312 284.582031 284.34375 285.59375 286.066406 285.226562 C 287.789062 284.863281 288.519531 283.140625 288.519531 283.140625 C 288.519531 283.140625 291.144531 283.226562 292.867188 284.6875 C 294.191406 285.800781 299.792969 288.742188 303.339844 291.074219 L 246.503906 529.171875 Z M 246.503906 529.191406 " fill-opacity="1" fill-rule="nonzero"/></g></svg>